<svg width="19" height="22" viewBox="0 0 19 22" fill="none" xmlns="http://www.w3.org/2000/svg">
<path d="M16.5571 22H2.44286C1.79497 22 1.17362 21.7574 0.715496 21.3257C0.257372 20.8939 0 20.3083 0 19.6977V2.30233C0 1.69171 0.257372 1.10611 0.715496 0.674335C1.17362 0.242566 1.79497 0 2.44286 0H16.5571C17.205 0 17.8264 0.242566 18.2845 0.674335C18.7426 1.10611 19 1.69171 19 2.30233V19.6977C19 20.3083 18.7426 20.8939 18.2845 21.3257C17.8264 21.7574 17.205 22 16.5571 22ZM2.44286 1.53488C2.2269 1.53488 2.01978 1.61574 1.86707 1.75966C1.71436 1.90359 1.62857 2.09879 1.62857 2.30233V19.6977C1.62857 19.9012 1.71436 20.0964 1.86707 20.2403C2.01978 20.3843 2.2269 20.4651 2.44286 20.4651H16.5571C16.7731 20.4651 16.9802 20.3843 17.1329 20.2403C17.2856 20.0964 17.3714 19.9012 17.3714 19.6977V2.30233C17.3714 2.09879 17.2856 1.90359 17.1329 1.75966C16.9802 1.61574 16.7731 1.53488 16.5571 1.53488H2.44286Z" fill="white"/>
<path d="M13.8429 17.907H5.15714C4.94118 17.907 4.73406 17.8261 4.58136 17.6822C4.42865 17.5383 4.34286 17.3431 4.34286 17.1395C4.34286 16.936 4.42865 16.7408 4.58136 16.5969C4.73406 16.4529 4.94118 16.3721 5.15714 16.3721H13.8429C14.0588 16.3721 14.2659 16.4529 14.4186 16.5969C14.5714 16.7408 14.6571 16.936 14.6571 17.1395C14.6571 17.3431 14.5714 17.5383 14.4186 17.6822C14.2659 17.8261 14.0588 17.907 13.8429 17.907Z" fill="white"/>
<path d="M13.8429 13.814H5.15714C4.94118 13.814 4.73406 13.7331 4.58136 13.5892C4.42865 13.4452 4.34286 13.25 4.34286 13.0465C4.34286 12.843 4.42865 12.6478 4.58136 12.5038C4.73406 12.3599 4.94118 12.2791 5.15714 12.2791H13.8429C14.0588 12.2791 14.2659 12.3599 14.4186 12.5038C14.5714 12.6478 14.6571 12.843 14.6571 13.0465C14.6571 13.25 14.5714 13.4452 14.4186 13.5892C14.2659 13.7331 14.0588 13.814 13.8429 13.814Z" fill="white"/>
<path d="M9.5 9.72093H5.15714C4.94118 9.72093 4.73406 9.64007 4.58136 9.49615C4.42865 9.35223 4.34286 9.15703 4.34286 8.95349C4.34286 8.74995 4.42865 8.55475 4.58136 8.41082C4.73406 8.2669 4.94118 8.18605 5.15714 8.18605H9.5C9.71596 8.18605 9.92308 8.2669 10.0758 8.41082C10.2285 8.55475 10.3143 8.74995 10.3143 8.95349C10.3143 9.15703 10.2285 9.35223 10.0758 9.49615C9.92308 9.64007 9.71596 9.72093 9.5 9.72093Z" fill="white"/>
<path d="M12.7571 5.62791H6.24286C5.73982 5.62522 5.25821 5.4357 4.9025 5.10046C4.5468 4.76521 4.34571 4.3113 4.34286 3.83721V1.7907C4.34286 1.31578 4.54304 0.860304 4.89935 0.524483C5.25567 0.188662 5.73895 0 6.24286 0H12.7571C13.2611 0 13.7443 0.188662 14.1006 0.524483C14.457 0.860304 14.6571 1.31578 14.6571 1.7907V3.83721C14.6543 4.3113 14.4532 4.76521 14.0975 5.10046C13.7418 5.4357 13.2602 5.62522 12.7571 5.62791ZM6.24286 1.53488C6.17087 1.53488 6.10183 1.56184 6.05093 1.60981C6.00002 1.65778 5.97143 1.72285 5.97143 1.7907V3.83721C5.97143 3.90506 6.00002 3.97012 6.05093 4.0181C6.10183 4.06607 6.17087 4.09302 6.24286 4.09302H12.7571C12.8291 4.09302 12.8982 4.06607 12.9491 4.0181C13 3.97012 13.0286 3.90506 13.0286 3.83721V1.7907C13.0286 1.72285 13 1.65778 12.9491 1.60981C12.8982 1.56184 12.8291 1.53488 12.7571 1.53488H6.24286Z" fill="white"/>
</svg>
