<svg width="24" height="27" viewBox="0 0 24 27" fill="none" xmlns="http://www.w3.org/2000/svg">
<path d="M7.07692 5.65116C6.57231 5.65116 6.15385 5.22419 6.15385 4.7093V0.94186C6.15385 0.426977 6.57231 0 7.07692 0C7.58154 0 8 0.426977 8 0.94186V4.7093C8 5.22419 7.58154 5.65116 7.07692 5.65116Z" fill="white"/>
<path d="M16.9231 5.65116C16.4185 5.65116 16 5.22419 16 4.7093V0.94186C16 0.426977 16.4185 0 16.9231 0C17.4277 0 17.8462 0.426977 17.8462 0.94186V4.7093C17.8462 5.22419 17.4277 5.65116 16.9231 5.65116Z" fill="white"/>
<path d="M7.69231 16.6397C7.53231 16.6397 7.37231 16.602 7.22462 16.5392C7.06462 16.4764 6.94154 16.3885 6.81846 16.2755C6.59692 16.0369 6.46154 15.7229 6.46154 15.3838C6.46154 15.2206 6.49846 15.0573 6.56 14.9066C6.62154 14.7559 6.70769 14.6178 6.81846 14.4922C6.94154 14.3792 7.06462 14.2913 7.22462 14.2285C7.66769 14.0401 8.22154 14.1406 8.56615 14.4922C8.78769 14.7308 8.92308 15.0573 8.92308 15.3838C8.92308 15.4592 8.91077 15.5471 8.89846 15.635C8.88615 15.7104 8.86154 15.7857 8.82462 15.8611C8.8 15.9364 8.76308 16.0118 8.71385 16.0871C8.67692 16.1499 8.61539 16.2127 8.56615 16.2755C8.33231 16.5015 8.01231 16.6397 7.69231 16.6397Z" fill="white"/>
<path d="M12 16.6394C11.84 16.6394 11.68 16.6017 11.5323 16.5389C11.3723 16.4762 11.2492 16.3882 11.1262 16.2752C10.9046 16.0366 10.7692 15.7227 10.7692 15.3836C10.7692 15.2203 10.8062 15.0571 10.8677 14.9064C10.9292 14.7557 11.0154 14.6175 11.1262 14.492C11.2492 14.3789 11.3723 14.291 11.5323 14.2282C11.9754 14.0273 12.5292 14.1403 12.8738 14.492C13.0954 14.7306 13.2308 15.0571 13.2308 15.3836C13.2308 15.4589 13.2185 15.5469 13.2062 15.6348C13.1938 15.7101 13.1692 15.7855 13.1323 15.8608C13.1077 15.9362 13.0708 16.0115 13.0215 16.0869C12.9846 16.1496 12.9231 16.2124 12.8738 16.2752C12.64 16.5013 12.32 16.6394 12 16.6394Z" fill="white"/>
<path d="M16.3077 16.6394C16.1477 16.6394 15.9877 16.6017 15.84 16.5389C15.68 16.4762 15.5569 16.3882 15.4338 16.2752C15.3846 16.2124 15.3354 16.1496 15.2862 16.0869C15.2369 16.0115 15.2 15.9362 15.1754 15.8608C15.1385 15.7855 15.1138 15.7101 15.1015 15.6348C15.0892 15.5469 15.0769 15.4589 15.0769 15.3836C15.0769 15.0571 15.2123 14.7306 15.4338 14.492C15.5569 14.3789 15.68 14.291 15.84 14.2282C16.2954 14.0273 16.8369 14.1403 17.1815 14.492C17.4031 14.7306 17.5385 15.0571 17.5385 15.3836C17.5385 15.4589 17.5262 15.5469 17.5138 15.6348C17.5015 15.7101 17.4769 15.7855 17.44 15.8608C17.4154 15.9362 17.3785 16.0115 17.3292 16.0869C17.2923 16.1496 17.2308 16.2124 17.1815 16.2752C16.9477 16.5013 16.6277 16.6394 16.3077 16.6394Z" fill="white"/>
<path d="M7.69231 21.0348C7.53231 21.0348 7.37231 20.9972 7.22462 20.9344C7.07692 20.8716 6.94154 20.7836 6.81846 20.6706C6.59692 20.432 6.46154 20.1055 6.46154 19.7789C6.46154 19.6157 6.49846 19.4524 6.56 19.3017C6.62154 19.1385 6.70769 19.0005 6.81846 18.8874C7.27385 18.4228 8.11077 18.4228 8.56615 18.8874C8.78769 19.126 8.92308 19.4524 8.92308 19.7789C8.92308 20.1055 8.78769 20.432 8.56615 20.6706C8.33231 20.8966 8.01231 21.0348 7.69231 21.0348Z" fill="white"/>
<path d="M12 21.0348C11.68 21.0348 11.36 20.8966 11.1262 20.6706C10.9046 20.432 10.7692 20.1055 10.7692 19.7789C10.7692 19.6157 10.8062 19.4524 10.8677 19.3017C10.9292 19.1385 11.0154 19.0005 11.1262 18.8874C11.5815 18.4228 12.4185 18.4228 12.8738 18.8874C12.9846 19.0005 13.0708 19.1385 13.1323 19.3017C13.1938 19.4524 13.2308 19.6157 13.2308 19.7789C13.2308 20.1055 13.0954 20.432 12.8738 20.6706C12.64 20.8966 12.32 21.0348 12 21.0348Z" fill="white"/>
<path d="M16.3077 21.0348C15.9877 21.0348 15.6677 20.8966 15.4338 20.6706C15.3231 20.5575 15.2369 20.4194 15.1754 20.2562C15.1138 20.1055 15.0769 19.9422 15.0769 19.7789C15.0769 19.6157 15.1138 19.4524 15.1754 19.3017C15.2369 19.1385 15.3231 19.0003 15.4338 18.8873C15.7169 18.5985 16.1477 18.4603 16.5415 18.5482C16.6277 18.5608 16.7015 18.5859 16.7754 18.6236C16.8492 18.6487 16.9231 18.6864 16.9969 18.7366C17.0585 18.7743 17.12 18.8371 17.1815 18.8873C17.4031 19.1259 17.5385 19.4524 17.5385 19.7789C17.5385 20.1055 17.4031 20.432 17.1815 20.6706C16.9477 20.8966 16.6277 21.0348 16.3077 21.0348Z" fill="white"/>
<path d="M22.4615 10.7872H1.53846C1.03385 10.7872 0.615385 10.3603 0.615385 9.84538C0.615385 9.3305 1.03385 8.90352 1.53846 8.90352H22.4615C22.9662 8.90352 23.3846 9.3305 23.3846 9.84538C23.3846 10.3603 22.9662 10.7872 22.4615 10.7872Z" fill="white"/>
<path d="M16.9231 27H7.07692C2.58462 27 0 24.3628 0 19.7791V9.10465C0 4.52093 2.58462 1.88372 7.07692 1.88372H16.9231C21.4154 1.88372 24 4.52093 24 9.10465V19.7791C24 24.3628 21.4154 27 16.9231 27ZM7.07692 3.76744C3.55692 3.76744 1.84615 5.51302 1.84615 9.10465V19.7791C1.84615 23.3707 3.55692 25.1163 7.07692 25.1163H16.9231C20.4431 25.1163 22.1538 23.3707 22.1538 19.7791V9.10465C22.1538 5.51302 20.4431 3.76744 16.9231 3.76744H7.07692Z" fill="white"/>
</svg>
