<svg width="25" height="25" viewBox="0 0 25 25" fill="none" xmlns="http://www.w3.org/2000/svg">
<path d="M19.035 9.7327H12.9303C12.4536 9.7327 12.0583 9.33735 12.0583 8.86061C12.0583 8.38386 12.4536 7.98851 12.9303 7.98851H19.035C19.5117 7.98851 19.9071 8.38386 19.9071 8.86061C19.9071 9.33735 19.5234 9.7327 19.035 9.7327Z" fill="white"/>
<path d="M6.82508 10.6164C6.60415 10.6164 6.38322 10.535 6.2088 10.3606L5.33671 9.48845C4.9995 9.15124 4.9995 8.5931 5.33671 8.25589C5.67392 7.91869 6.23206 7.91869 6.56927 8.25589L6.82508 8.51171L8.82508 6.51171C9.16229 6.1745 9.72043 6.1745 10.0576 6.51171C10.3949 6.84892 10.3949 7.40706 10.0576 7.74427L7.44136 10.3606C7.27857 10.5234 7.05764 10.6164 6.82508 10.6164Z" fill="white"/>
<path d="M19.035 17.8722H12.9303C12.4536 17.8722 12.0583 17.4769 12.0583 17.0001C12.0583 16.5234 12.4536 16.128 12.9303 16.128H19.035C19.5117 16.128 19.9071 16.5234 19.9071 17.0001C19.9071 17.4769 19.5234 17.8722 19.035 17.8722Z" fill="white"/>
<path d="M6.82508 18.7559C6.60415 18.7559 6.38322 18.6745 6.2088 18.5001L5.33671 17.628C4.9995 17.2908 4.9995 16.7327 5.33671 16.3955C5.67392 16.0583 6.23206 16.0583 6.56927 16.3955L6.82508 16.6513L8.82508 14.6513C9.16229 14.3141 9.72043 14.3141 10.0576 14.6513C10.3949 14.9885 10.3949 15.5466 10.0576 15.8838L7.44136 18.5001C7.27857 18.6629 7.05764 18.7559 6.82508 18.7559Z" fill="white"/>
<path d="M15.9884 25H9.01163C2.69768 25 0 22.3023 0 15.9884V9.01163C0 2.69768 2.69768 0 9.01163 0H15.9884C22.3023 0 25 2.69768 25 9.01163V15.9884C25 22.3023 22.3023 25 15.9884 25ZM9.01163 1.74419C3.65116 1.74419 1.74419 3.65116 1.74419 9.01163V15.9884C1.74419 21.3488 3.65116 23.2558 9.01163 23.2558H15.9884C21.3488 23.2558 23.2558 21.3488 23.2558 15.9884V9.01163C23.2558 3.65116 21.3488 1.74419 15.9884 1.74419H9.01163Z" fill="white"/>
</svg>
