<svg width="85" height="13" viewBox="0 0 85 13" fill="none" xmlns="http://www.w3.org/2000/svg">
<path d="M12.7118 4.69239L8.7984 4.09993C8.74461 4.09194 8.69349 4.07028 8.6495 4.03685C8.60551 4.00342 8.56998 3.95922 8.54599 3.90811L6.79768 0.195545C6.76956 0.136771 6.72641 0.0873545 6.67304 0.0528216C6.61968 0.0182887 6.5582 0 6.49549 0C6.43278 0 6.3713 0.0182887 6.31794 0.0528216C6.26457 0.0873545 6.22142 0.136771 6.1933 0.195545L4.44962 3.91054C4.42522 3.96204 4.38932 4.00659 4.34497 4.04041C4.30062 4.07423 4.24914 4.09632 4.1949 4.10479L0.286089 4.70453C0.224311 4.71422 0.166335 4.74179 0.118681 4.78413C0.0710275 4.82648 0.0355843 4.88193 0.0163369 4.94424C-0.00291059 5.00655 -0.00519909 5.07326 0.00972865 5.13686C0.0246564 5.20046 0.0562084 5.25844 0.100837 5.30427L2.93287 8.19371C2.97065 8.23275 2.99914 8.28057 3.01604 8.33329C3.03294 8.38602 3.03776 8.44217 3.03013 8.49722L2.36554 12.5886C2.35499 12.6532 2.36188 12.7197 2.38542 12.7804C2.40896 12.8412 2.44822 12.8939 2.49878 12.9325C2.54934 12.9711 2.60918 12.9942 2.67155 12.999C2.73393 13.0039 2.79637 12.9904 2.85182 12.9601L6.34845 11.0176C6.39671 10.9912 6.45033 10.9774 6.50475 10.9774C6.55918 10.9774 6.6128 10.9912 6.66106 11.0176L10.1577 12.9406C10.2124 12.972 10.2744 12.9867 10.3366 12.9832C10.3989 12.9797 10.459 12.9581 10.5102 12.9208C10.5614 12.8835 10.6017 12.8319 10.6265 12.772C10.6514 12.712 10.6598 12.646 10.6509 12.5813L9.97475 8.49722C9.96537 8.44065 9.96933 8.38254 9.98628 8.32794C10.0032 8.27335 10.0327 8.22393 10.072 8.18399L12.8971 5.29455C12.9424 5.24882 12.9745 5.19067 12.9899 5.12671C13.0052 5.06276 13.0031 4.99557 12.9838 4.93282C12.9645 4.87006 12.9288 4.81425 12.8807 4.77174C12.8326 4.72923 12.7741 4.70174 12.7118 4.69239Z" fill="#FDC713"/>
<path d="M30.7118 4.69239L26.7984 4.09993C26.7446 4.09194 26.6935 4.07028 26.6495 4.03685C26.6055 4.00342 26.57 3.95922 26.546 3.90811L24.7977 0.195545C24.7696 0.136771 24.7264 0.0873545 24.673 0.0528216C24.6197 0.0182887 24.5582 0 24.4955 0C24.4328 0 24.3713 0.0182887 24.3179 0.0528216C24.2646 0.0873545 24.2214 0.136771 24.1933 0.195545L22.4496 3.91054C22.4252 3.96204 22.3893 4.00659 22.345 4.04041C22.3006 4.07423 22.2491 4.09632 22.1949 4.10479L18.2861 4.70453C18.2243 4.71422 18.1663 4.74179 18.1187 4.78413C18.071 4.82648 18.0356 4.88193 18.0163 4.94424C17.9971 5.00655 17.9948 5.07326 18.0097 5.13686C18.0247 5.20046 18.0562 5.25844 18.1008 5.30427L20.9329 8.19371C20.9707 8.23275 20.9991 8.28057 21.016 8.33329C21.0329 8.38602 21.0378 8.44217 21.0301 8.49722L20.3655 12.5886C20.355 12.6532 20.3619 12.7197 20.3854 12.7804C20.409 12.8412 20.4482 12.8939 20.4988 12.9325C20.5493 12.9711 20.6092 12.9942 20.6716 12.999C20.7339 13.0039 20.7964 12.9904 20.8518 12.9601L24.3484 11.0176C24.3967 10.9912 24.4503 10.9774 24.5048 10.9774C24.5592 10.9774 24.6128 10.9912 24.6611 11.0176L28.1577 12.9406C28.2124 12.972 28.2744 12.9867 28.3366 12.9832C28.3989 12.9797 28.459 12.9581 28.5102 12.9208C28.5614 12.8835 28.6017 12.8319 28.6265 12.772C28.6514 12.712 28.6598 12.646 28.6509 12.5813L27.9747 8.49722C27.9654 8.44065 27.9693 8.38254 27.9863 8.32794C28.0032 8.27335 28.0327 8.22393 28.072 8.18399L30.8971 5.29455C30.9424 5.24882 30.9745 5.19067 30.9899 5.12671C31.0052 5.06276 31.0031 4.99557 30.9838 4.93282C30.9645 4.87006 30.9288 4.81425 30.8807 4.77174C30.8326 4.72923 30.7741 4.70174 30.7118 4.69239Z" fill="#FDC713"/>
<path d="M48.7118 4.69239L44.7984 4.09993C44.7446 4.09194 44.6935 4.07028 44.6495 4.03685C44.6055 4.00342 44.57 3.95922 44.546 3.90811L42.7977 0.195545C42.7696 0.136771 42.7264 0.0873545 42.673 0.0528216C42.6197 0.0182887 42.5582 0 42.4955 0C42.4328 0 42.3713 0.0182887 42.3179 0.0528216C42.2646 0.0873545 42.2214 0.136771 42.1933 0.195545L40.4496 3.91054C40.4252 3.96204 40.3893 4.00659 40.345 4.04041C40.3006 4.07423 40.2491 4.09632 40.1949 4.10479L36.2861 4.70453C36.2243 4.71422 36.1663 4.74179 36.1187 4.78413C36.071 4.82648 36.0356 4.88193 36.0163 4.94424C35.9971 5.00655 35.9948 5.07326 36.0097 5.13686C36.0247 5.20046 36.0562 5.25844 36.1008 5.30427L38.9329 8.19371C38.9707 8.23275 38.9991 8.28057 39.016 8.33329C39.0329 8.38602 39.0378 8.44217 39.0301 8.49722L38.3655 12.5886C38.355 12.6532 38.3619 12.7197 38.3854 12.7804C38.409 12.8412 38.4482 12.8939 38.4988 12.9325C38.5493 12.9711 38.6092 12.9942 38.6716 12.999C38.7339 13.0039 38.7964 12.9904 38.8518 12.9601L42.3484 11.0176C42.3967 10.9912 42.4503 10.9774 42.5048 10.9774C42.5592 10.9774 42.6128 10.9912 42.6611 11.0176L46.1577 12.9406C46.2124 12.972 46.2744 12.9867 46.3366 12.9832C46.3989 12.9797 46.459 12.9581 46.5102 12.9208C46.5614 12.8835 46.6017 12.8319 46.6265 12.772C46.6514 12.712 46.6598 12.646 46.6509 12.5813L45.9747 8.49722C45.9654 8.44065 45.9693 8.38254 45.9863 8.32794C46.0032 8.27335 46.0327 8.22393 46.072 8.18399L48.8971 5.29455C48.9424 5.24882 48.9745 5.19067 48.9899 5.12671C49.0052 5.06276 49.0031 4.99557 48.9838 4.93282C48.9645 4.87006 48.9288 4.81425 48.8807 4.77174C48.8326 4.72923 48.7741 4.70174 48.7118 4.69239Z" fill="#FDC713"/>
<path d="M66.7118 4.69239L62.7984 4.09993C62.7446 4.09194 62.6935 4.07028 62.6495 4.03685C62.6055 4.00342 62.57 3.95922 62.546 3.90811L60.7977 0.195545C60.7696 0.136771 60.7264 0.0873545 60.673 0.0528216C60.6197 0.0182887 60.5582 0 60.4955 0C60.4328 0 60.3713 0.0182887 60.3179 0.0528216C60.2646 0.0873545 60.2214 0.136771 60.1933 0.195545L58.4496 3.91054C58.4252 3.96204 58.3893 4.00659 58.345 4.04041C58.3006 4.07423 58.2491 4.09632 58.1949 4.10479L54.2861 4.70453C54.2243 4.71422 54.1663 4.74179 54.1187 4.78413C54.071 4.82648 54.0356 4.88193 54.0163 4.94424C53.9971 5.00655 53.9948 5.07326 54.0097 5.13686C54.0247 5.20046 54.0562 5.25844 54.1008 5.30427L56.9329 8.19371C56.9707 8.23275 56.9991 8.28057 57.016 8.33329C57.0329 8.38602 57.0378 8.44217 57.0301 8.49722L56.3655 12.5886C56.355 12.6532 56.3619 12.7197 56.3854 12.7804C56.409 12.8412 56.4482 12.8939 56.4988 12.9325C56.5493 12.9711 56.6092 12.9942 56.6716 12.999C56.7339 13.0039 56.7964 12.9904 56.8518 12.9601L60.3484 11.0176C60.3967 10.9912 60.4503 10.9774 60.5048 10.9774C60.5592 10.9774 60.6128 10.9912 60.6611 11.0176L64.1577 12.9406C64.2124 12.972 64.2744 12.9867 64.3366 12.9832C64.3989 12.9797 64.459 12.9581 64.5102 12.9208C64.5614 12.8835 64.6017 12.8319 64.6265 12.772C64.6514 12.712 64.6598 12.646 64.6509 12.5813L63.9747 8.49722C63.9654 8.44065 63.9693 8.38254 63.9863 8.32794C64.0032 8.27335 64.0327 8.22393 64.072 8.18399L66.8971 5.29455C66.9424 5.24882 66.9745 5.19067 66.9899 5.12671C67.0052 5.06276 67.0031 4.99557 66.9838 4.93282C66.9645 4.87006 66.9288 4.81425 66.8807 4.77174C66.8326 4.72923 66.7741 4.70174 66.7118 4.69239Z" fill="#FDC713"/>
<path d="M84.7118 4.69239L80.7984 4.09993C80.7446 4.09194 80.6935 4.07028 80.6495 4.03685C80.6055 4.00342 80.57 3.95922 80.546 3.90811L78.7977 0.195545C78.7696 0.136771 78.7264 0.0873545 78.673 0.0528216C78.6197 0.0182887 78.5582 0 78.4955 0C78.4328 0 78.3713 0.0182887 78.3179 0.0528216C78.2646 0.0873545 78.2214 0.136771 78.1933 0.195545L76.4496 3.91054C76.4252 3.96204 76.3893 4.00659 76.345 4.04041C76.3006 4.07423 76.2491 4.09632 76.1949 4.10479L72.2861 4.70453C72.2243 4.71422 72.1663 4.74179 72.1187 4.78413C72.071 4.82648 72.0356 4.88193 72.0163 4.94424C71.9971 5.00655 71.9948 5.07326 72.0097 5.13686C72.0247 5.20046 72.0562 5.25844 72.1008 5.30427L74.9329 8.19371C74.9707 8.23275 74.9991 8.28057 75.016 8.33329C75.0329 8.38602 75.0378 8.44217 75.0301 8.49722L74.3655 12.5886C74.355 12.6532 74.3619 12.7197 74.3854 12.7804C74.409 12.8412 74.4482 12.8939 74.4988 12.9325C74.5493 12.9711 74.6092 12.9942 74.6716 12.999C74.7339 13.0039 74.7964 12.9904 74.8518 12.9601L78.3484 11.0176C78.3967 10.9912 78.4503 10.9774 78.5048 10.9774C78.5592 10.9774 78.6128 10.9912 78.6611 11.0176L82.1577 12.9406C82.2124 12.972 82.2744 12.9867 82.3366 12.9832C82.3989 12.9797 82.459 12.9581 82.5102 12.9208C82.5614 12.8835 82.6017 12.8319 82.6265 12.772C82.6514 12.712 82.6598 12.646 82.6509 12.5813L81.9747 8.49722C81.9654 8.44065 81.9693 8.38254 81.9863 8.32794C82.0032 8.27335 82.0327 8.22393 82.072 8.18399L84.8971 5.29455C84.9424 5.24882 84.9745 5.19067 84.9899 5.12671C85.0052 5.06276 85.0031 4.99557 84.9838 4.93282C84.9645 4.87006 84.9288 4.81425 84.8807 4.77174C84.8326 4.72923 84.7741 4.70174 84.7118 4.69239Z" fill="#FDC713"/>
</svg>
