<svg width="27" height="27" viewBox="0 0 27 27" fill="none" xmlns="http://www.w3.org/2000/svg">
<path d="M19.125 27C15.3068 27 11.25 25.8165 11.25 23.625C11.25 23.3145 11.502 23.0625 11.8125 23.0625C12.123 23.0625 12.375 23.3145 12.375 23.625C12.375 24.5644 14.9423 25.875 19.125 25.875C23.3078 25.875 25.875 24.5644 25.875 23.625C25.875 23.3145 26.127 23.0625 26.4375 23.0625C26.748 23.0625 27 23.3145 27 23.625C27 25.8165 22.9433 27 19.125 27Z" fill="white"/>
<path d="M19.125 23.625C15.3068 23.625 11.25 22.4415 11.25 20.25C11.25 19.9395 11.502 19.6875 11.8125 19.6875C12.123 19.6875 12.375 19.9395 12.375 20.25C12.375 21.1894 14.9423 22.5 19.125 22.5C23.3078 22.5 25.875 21.1894 25.875 20.25C25.875 19.9395 26.127 19.6875 26.4375 19.6875C26.748 19.6875 27 19.9395 27 20.25C27 22.4415 22.9433 23.625 19.125 23.625Z" fill="white"/>
<path d="M19.125 20.25C15.3068 20.25 11.25 19.0665 11.25 16.875C11.25 14.6835 15.3068 13.5 19.125 13.5C22.9433 13.5 27 14.6835 27 16.875C27 19.0665 22.9433 20.25 19.125 20.25ZM19.125 14.625C14.9423 14.625 12.375 15.9356 12.375 16.875C12.375 17.8144 14.9423 19.125 19.125 19.125C23.3078 19.125 25.875 17.8144 25.875 16.875C25.875 15.9356 23.3078 14.625 19.125 14.625Z" fill="white"/>
<path d="M26.4375 24.1875C26.127 24.1875 25.875 23.9355 25.875 23.625V16.875C25.875 16.5645 26.127 16.3125 26.4375 16.3125C26.748 16.3125 27 16.5645 27 16.875V23.625C27 23.9355 26.748 24.1875 26.4375 24.1875Z" fill="white"/>
<path d="M11.8125 24.1875C11.502 24.1875 11.25 23.9355 11.25 23.625V16.875C11.25 16.5645 11.502 16.3125 11.8125 16.3125C12.123 16.3125 12.375 16.5645 12.375 16.875V23.625C12.375 23.9355 12.123 24.1875 11.8125 24.1875Z" fill="white"/>
<path d="M7.875 13.5C4.05675 13.5 0 12.3165 0 10.125C0 9.8145 0.252 9.5625 0.5625 9.5625C0.873 9.5625 1.125 9.8145 1.125 10.125C1.125 11.0644 3.69225 12.375 7.875 12.375C12.0578 12.375 14.625 11.0644 14.625 10.125C14.625 9.8145 14.877 9.5625 15.1875 9.5625C15.498 9.5625 15.75 9.8145 15.75 10.125C15.75 12.3165 11.6933 13.5 7.875 13.5Z" fill="white"/>
<path d="M7.875 10.125C4.05675 10.125 0 8.9415 0 6.75C0 6.4395 0.252 6.1875 0.5625 6.1875C0.873 6.1875 1.125 6.4395 1.125 6.75C1.125 7.68937 3.69225 9 7.875 9C12.0578 9 14.625 7.68937 14.625 6.75C14.625 6.4395 14.877 6.1875 15.1875 6.1875C15.498 6.1875 15.75 6.4395 15.75 6.75C15.75 8.9415 11.6933 10.125 7.875 10.125Z" fill="white"/>
<path d="M7.875 20.25C4.05675 20.25 0 19.0665 0 16.875C0 16.5645 0.252 16.3125 0.5625 16.3125C0.873 16.3125 1.125 16.5645 1.125 16.875C1.125 17.8144 3.69225 19.125 7.875 19.125C8.487 19.125 9.02025 19.1003 9.50288 19.0496C9.80775 19.0159 10.089 19.2409 10.1216 19.5491C10.1543 19.8574 9.93038 20.1353 9.62213 20.1679C9.09788 20.2241 8.52638 20.25 7.875 20.25Z" fill="white"/>
<path d="M7.875 23.625C4.05675 23.625 0 22.4415 0 20.25C0 19.9395 0.252 19.6875 0.5625 19.6875C0.873 19.6875 1.125 19.9395 1.125 20.25C1.125 21.1894 3.69225 22.5 7.875 22.5C8.487 22.5 9.02025 22.4753 9.50288 22.4246C9.80775 22.3853 10.089 22.6159 10.1216 22.9241C10.1543 23.2324 9.93038 23.5103 9.62213 23.5429C9.09788 23.5991 8.52638 23.625 7.875 23.625Z" fill="white"/>
<path d="M7.875 16.875C4.05675 16.875 0 15.6915 0 13.5C0 13.1895 0.252 12.9375 0.5625 12.9375C0.873 12.9375 1.125 13.1895 1.125 13.5C1.125 14.4394 3.69225 15.75 7.875 15.75C8.487 15.75 9.02025 15.7253 9.50288 15.6746C9.80775 15.6386 10.089 15.8647 10.1216 16.1741C10.1543 16.4824 9.93038 16.7603 9.62213 16.7929C9.09788 16.8491 8.52638 16.875 7.875 16.875Z" fill="white"/>
<path d="M7.875 6.75C4.05675 6.75 4.02331e-07 5.5665 4.02331e-07 3.375C4.02331e-07 1.1835 4.05675 0 7.875 0C11.6933 0 15.75 1.1835 15.75 3.375C15.75 5.5665 11.6933 6.75 7.875 6.75ZM7.875 1.125C3.69225 1.125 1.125 2.43563 1.125 3.375C1.125 4.31437 3.69225 5.625 7.875 5.625C12.0578 5.625 14.625 4.31437 14.625 3.375C14.625 2.43563 12.0578 1.125 7.875 1.125Z" fill="white"/>
<path d="M0.5625 20.8125C0.252 20.8125 0 20.5605 0 20.25L4.02331e-07 3.375C4.02331e-07 3.0645 0.252 2.8125 0.5625 2.8125C0.873 2.8125 1.125 3.0645 1.125 3.375L1.125 20.25C1.125 20.5605 0.873 20.8125 0.5625 20.8125Z" fill="white"/>
<path d="M15.1875 10.6875C14.877 10.6875 14.625 10.4355 14.625 10.125V3.375C14.625 3.0645 14.877 2.8125 15.1875 2.8125C15.498 2.8125 15.75 3.0645 15.75 3.375V10.125C15.75 10.4355 15.498 10.6875 15.1875 10.6875Z" fill="white"/>
</svg>
