<svg width="20" height="15" viewBox="0 0 20 15" fill="none" xmlns="http://www.w3.org/2000/svg">
<path d="M14.5543 15L11.8639 11.7043C12.4689 11.4374 13.0416 11.1294 13.5818 10.7803C14.1221 10.4107 14.5543 9.91786 14.8784 9.30185C15.2242 8.6653 15.3971 7.84394 15.3971 6.83778L20 6.99179C20 8.55236 19.6975 9.8768 19.0924 10.9651C18.5089 12.0329 17.7958 12.8953 16.953 13.5524C16.1102 14.2094 15.3106 14.692 14.5543 15ZM12.5122 6.99179V0H20V6.99179H12.5122ZM2.69044 15L0 11.7043C0.605078 11.4374 1.16694 11.1294 1.68558 10.7803C2.22582 10.4107 2.65802 9.91786 2.98217 9.30185C3.32793 8.6653 3.50081 7.84394 3.50081 6.83778L8.10373 6.99179C8.10373 8.55236 7.80119 9.8768 7.19611 10.9651C6.61264 12.0329 5.89951 12.8953 5.05673 13.5524C4.21394 14.2094 3.42518 14.692 2.69044 15ZM0.648299 6.99179V0H8.10373V6.99179H0.648299Z" fill="white"/>
</svg>
