<svg width="28" height="21" viewBox="0 0 28 21" fill="none" xmlns="http://www.w3.org/2000/svg">
<path d="M19.6465 8.68467C22.2207 8.68467 24.3145 6.73673 24.3145 4.34234C24.3145 1.94794 22.2207 0 19.6465 0C17.0723 0 14.9775 1.94794 14.9775 4.34234C14.9775 6.73673 17.0723 8.68467 19.6465 8.68467ZM22.3145 4.34234C22.3145 5.71076 21.1172 6.82439 19.6465 6.82439C18.1748 6.82439 16.9775 5.71076 16.9775 4.34234C16.9775 2.97392 18.1748 1.86029 19.6465 1.86029C21.1172 1.86029 22.3145 2.97392 22.3145 4.34234Z" fill="white"/>
<path d="M19.6504 10.0799C18.709 10.0799 17.8086 10.2202 16.9736 10.4968C16.4541 10.669 16.1826 11.2012 16.3672 11.6849C16.5366 12.1266 17.0268 12.3584 17.5085 12.2673C17.5543 12.2586 17.6001 12.264 17.6455 12.249C18.2637 12.0442 18.9385 11.9402 19.6504 11.9402C21.3496 11.9402 22.9453 12.5538 24.1426 13.6674C25.3398 14.7815 26 16.2657 26 17.8467C26 18.1923 25.8555 18.5166 25.5928 18.7614C25.3301 19.0053 24.9854 19.1397 24.6201 19.1397H19.2402C19.1699 19.1397 19.1082 19.1641 19.0419 19.177C18.5878 19.265 18.2402 19.6216 18.2402 20.0699C18.2402 20.5835 18.6875 21 19.2402 21H24.6201C25.5195 21 26.3672 20.6716 27.0068 20.0767C27.6475 19.4812 28 18.6896 28 17.8467C28 15.7688 27.1318 13.8177 25.5566 12.3521C23.9814 10.887 21.8838 10.0799 19.6504 10.0799Z" fill="white"/>
<path d="M8.35352 8.68467C10.9277 8.68467 13.0225 6.73673 13.0225 4.34234C13.0225 1.94794 10.9277 0 8.35352 0C5.7793 0 3.68555 1.94794 3.68555 4.34234C3.68555 6.73673 5.7793 8.68467 8.35352 8.68467ZM8.35352 1.86029C9.8252 1.86029 11.0225 2.97392 11.0225 4.34234C11.0225 5.71076 9.8252 6.82439 8.35352 6.82439C6.88281 6.82439 5.68555 5.71076 5.68555 4.34234C5.68555 2.97392 6.88281 1.86029 8.35352 1.86029Z" fill="white"/>
<path d="M3.38281 20.9968H13.3252C15.1904 20.9968 16.708 19.5853 16.708 17.8503C16.708 13.5657 12.96 10.0799 8.35352 10.0799C3.74707 10.0799 0 13.5657 0 17.8503C0 19.5853 1.51758 20.9968 3.38281 20.9968ZM8.35352 11.9402C11.8574 11.9402 14.708 14.5916 14.708 17.8503C14.708 18.5597 14.0879 19.1365 13.3252 19.1365H3.38281C2.62012 19.1365 2 18.5597 2 17.8503C2 14.5916 4.85059 11.9402 8.35352 11.9402Z" fill="white"/>
</svg>
